<?xml version="1.0" standalone="no"?><!DOCTYPE svg PUBLIC "-//W3C//DTD SVG 1.1//EN" "http://www.w3.org/Graphics/SVG/1.1/DTD/svg11.dtd"><svg t="1620403196706" class="icon" viewBox="0 0 1024 1024" version="1.1" xmlns="http://www.w3.org/2000/svg" p-id="2308" xmlns:xlink="http://www.w3.org/1999/xlink" width="200" height="200"><defs><style type="text/css"></style></defs><path d="M847.4 159.8h-673c-8.9 0-16.1 7.2-16.1 16.1v673c0 8.9 7.2 16.1 16.1 16.1h673c8.9 0 16.1-7.2 16.1-16.1v-673c0-8.9-7.2-16.1-16.1-16.1zM228.8 300.9c0-8.8 7.2-16 16-16H311v-19.2c0-8.8 7.2-16 16-16h38.5c8.8 0 16 7.2 16 16v19.2h395.1c8.8 0 16 7.2 16 16v38.5c0 8.8-7.2 16-16 16H381.5v19.2c0 8.8-7.2 16-16 16H327c-8.8 0-16-7.2-16-16v-19.2h-66.2c-8.8 0-16-7.2-16-16v-38.5z m564.8 424c0 8.8-7.2 16-16 16H381.5v19.2c0 8.8-7.2 16-16 16H327c-8.8 0-16-7.2-16-16v-19.2h-65.2c-8.8 0-16-7.2-16-16v-38.5c0-8.8 7.2-16 16-16H311v-19.2c0-8.8 7.2-16 16-16h38.5c8.8 0 16 7.2 16 16v19.2h396.1c8.8 0 16 7.2 16 16v38.5z m0-192.8c0 8.8-7.2 16-16 16h-66.2v18.7c0 8.8-7.2 16-16 16h-38.5c-8.8 0-16-7.2-16-16v-18.7H245.8c-8.8 0-16-7.2-16-16v-38.5c0-8.8 7.2-16 16-16h395.1v-19.7c0-8.8 7.2-16 16-16h38.5c8.8 0 16 7.2 16 16v19.7h66.2c8.8 0 16 7.2 16 16v38.5z" fill="#231815" p-id="2309"></path></svg>