<?xml version="1.0" standalone="no"?><!DOCTYPE svg PUBLIC "-//W3C//DTD SVG 1.1//EN" "http://www.w3.org/Graphics/SVG/1.1/DTD/svg11.dtd"><svg t="1620403605540" class="icon" viewBox="0 0 1024 1024" version="1.1" xmlns="http://www.w3.org/2000/svg" p-id="4446" xmlns:xlink="http://www.w3.org/1999/xlink" width="200" height="200"><defs><style type="text/css"></style></defs><path d="M238.995 344.429h543.217c15.362 0 27.926-12.566 27.926-27.926s-12.566-27.926-27.926-27.926h-543.217c-15.362 0-27.926 12.566-27.926 27.926s12.566 27.926 27.926 27.926z" p-id="4447"></path><path d="M238.995 757.779h233.211c15.362 0 27.926-12.566 27.926-27.926s-12.566-27.926-27.926-27.926h-233.211c-15.362 0-27.926 12.566-27.926 27.926s12.566 27.926 27.926 27.926z" p-id="4448"></path><path d="M238.995 551.102h543.217c15.362 0 27.926-12.566 27.926-27.926s-12.566-27.926-27.926-27.926h-543.217c-15.362 0-27.926 12.566-27.926 27.926s12.566 27.926 27.926 27.926z" p-id="4449"></path><path d="M786.403 70.726h-551.597c-107.526 0-195.5 87.979-195.5 195.5v520.873c0 107.526 87.979 195.5 195.5 195.5h234.603c15.362 0 27.926-12.566 27.926-27.926s-12.566-27.926-27.926-27.926h-234.603c-76.802 0-139.646-62.841-139.646-139.646v-520.873c0-76.802 62.841-139.646 139.646-139.646h551.597c76.802 0 139.646 62.841 139.646 139.646v386.814h-103.337c-96.353 0-175.951 78.198-175.951 175.951v121.488c0 6.983 2.789 13.962 6.983 18.154 4.189 8.374 13.962 13.962 23.738 13.962h48.876c61.442 0 254.156-192.709 254.156-254.156v-462.223c1.397-107.526-86.579-195.5-194.11-195.5zM726.353 928.143h-23.738v-99.148c0-65.634 53.065-120.097 120.097-120.097h103.337v18.154c-6.983 40.5-161.989 195.5-199.695 201.085z" p-id="4450"></path></svg>